<!-- <svg xmlns="http://www.w3.org/2000/svg" fill="#2E3D78" stroke="#2E3D78" height="48" viewBox="0 -960 960 960" width="48"><path d="M356-79v-237h247v237H356ZM80-356v-247h236v247H80Zm276 0v-247h247v247H356Zm287 0v-247h237v247H643Zm0-287v-237h237v237H643Z"/></svg> -->
<svg xmlns="http://www.w3.org/2000/svg" height="48" stroke="#2E3D78" viewBox="0 -960 960 960" width="48"><path d="M379.846-150.769h199.308v-198.308H379.846v198.308ZM150.769-379.846h198.308v-199.308H150.769v199.308Zm229.077 0h199.308v-199.308H379.846v199.308Zm230.077 0h199.308v-199.308H609.923v199.308Zm0-230.077h199.308v-199.308H609.923v199.308ZM349.077-120v-229.077H120v-260.846h459.154V-840H840v490.923H609.923V-120H349.077Z"/></svg>